House of 1000 Corpses 2003 DVDRip Xvid BigPerm LKRG

Plot:

Two teenage couples traveling across the backwoods of Texas searching for urban legends of serial killers end up as prisoners of a bizarre and sadistic backwater family of serial killers.


Cast:

Chad Bannon......................Killer Karl
William Bassett..................Sheriff Huston
Karen Black......................Mother Firefly
Erin Daniels.....................Denise Willis
Joe Dobbs III....................Gerry Ober
Judith Drake.....................Skunk Ape Wife
Dennis Fimple....................Grampa Hugo
Gregg Gibbs......................Dr. Wolfenstein
Walton Goggins...................Steve Naish
Sid Haig.........................Captain Spaulding
Chris Hardwick...................Jerry Goldsmith
Ken Johnson......................Skunk Ape Husband
Jennifer Jostyn..................Mary Knowles
Irwin Keyes......................Ravelli
Matthew McGrory..................Tiny



General:

Complete name : House of 1000 Corpses 2003 DVDRip Xvid BigPerm LKRG\Hof1000CLKRG.avi
Format : AVI
Format/Info : Audio Video Interleave
File size : 930 MiB
Duration : 1h 29mn
Overall bit rate : 1 461 Kbps

Video:

ID : 0
Format : MPEG-4 Visual
Format profile : Advanced Simple@L5
Format settings, BVOP : Yes
Format settings, QPel : No
Format settings, GMC : No warppoints
Format settings, Matrix : Default (H.263)
Codec ID : XVID
Codec ID/Hint : XviD
Duration : 1h 29mn
Bit rate : 1 008 Kbps
Width : 720 pixels
Height : 404 pixels
Display aspect ratio : 16:9
Frame rate : 23.976 fps
Resolution : 8 bits
Colorimetry : 4:2:0
Scan type : Progressive
Bits/(Pixel*Frame) : 0.145
Stream size : 642 MiB (69%)
Writing library : XviD 1.2.1 (UTC 2008-12-04)

Audio:

ID : 1
Format : AC-3
Format/Info : Audio Coding 3
Codec ID : 2000
Duration : 1h 29mn
Bit rate mode : Constant
Bit rate : 448 Kbps
Channel(s) : 6 channels
Channel positions : Front: L C R, Side: L R, LFE
Sampling rate : 48.0 KHz
Resolution : 16 bits
Video delay : 42ms
Stream size : 285 MiB (31%)
Alignment : Split accross interleaves
Language : English